# xmcd CD database file
#
# Track frame offsets:
#	150
#	18367
#	35093
#	51233
#	68166
#	86619
#	106169
#	121071
#	130165
#	139513
#	152699
#	166439
#	180006
#	195155
#	201272
#	217113
#	230763
#
# Disc length: 3298 seconds
#
# Revision: 3
# Processed by: cddbd v1.5.2PL0 Copyright (c) Steve Scherf et al.
# Submitted via: CDex 1.51
#
DISCID=e20ce011
DTITLE=Club der toten Dichter - Zweifach sind die Phantasien - Wilhelm Busch
DYEAR=1900
DGENRE=Dichter vertont
TTITLE0=Max und Moritz (Witwe Bolte)
TTITLE1=Der Philosoph
TTITLE2=Der Einsame
TTITLE3=Onkel Kaspers Nase
TTITLE4=Zweifach sind die Phantasien
TTITLE5=Ein Maulwurf
TTITLE6=Die Selbstkritik
TTITLE7=Armer Haushalt
TTITLE8=Der Braten
TTITLE9=Die fromme Helene
TTITLE10=Scheu und treu
TTITLE11=Sehnsucht (Böse macht bang)
TTITLE12=Zahnweh
TTITLE13=Die Liebe war nicht geringe
TTITLE14=Vater werden ist nicht schwer
TTITLE15=Kritikus
TTITLE16=Max und Moritz (Letzter Streich)
EXTD=
EXTT0=
EXTT1=
EXTT2=
EXTT3=
EXTT4=
EXTT5=
EXTT6=
EXTT7=
EXTT8=
EXTT9=
EXTT10=
EXTT11=
EXTT12=
EXTT13=
EXTT14=
EXTT15=
EXTT16=
PLAYORDER=
